<svg xmlns="http://www.w3.org/2000/svg" width="370.1" height="96" viewBox="0 0 370.1 96">
  <g id="Group_86" data-name="Group 86" transform="translate(252 366.653)">
    <g id="Group_83" data-name="Group 83" transform="translate(-252 -355.142)">
      <path id="Path_64" data-name="Path 64" d="M676.677,8.46,662.1,27.763l-.075.1c-2.253,2.923-4.3,5.538-6.253,8.2a.405.405,0,0,0-.063.162,2,2,0,0,0,.37,1.227c1.167,1.657,2.357,3.3,3.558,4.932L655.35,36.7,642.44,19.6q1.348,1.757,2.705,3.526c1.167-1.51,2.285-2.935,3.381-4.374,4.468-5.876,8.966-11.734,13.364-17.658a2.322,2.322,0,0,1,2.894-.93A19.231,19.231,0,0,1,676.677,8.46Z" transform="translate(-583.21 -0.014)" fill="#fff"/>
      <path id="Path_65" data-name="Path 65" d="M481.111,178.969q-6.949,9.05-13.792,18.171a2.43,2.43,0,0,1-.379.411V170.637c1.613-2.1,3.01-3.923,4.512-5.876.321.355.582.6.8.884,2.937,3.833,5.852,7.683,8.823,11.492a1.246,1.246,0,0,1,.039,1.833Z" transform="translate(-450.099 -124.969)" fill="#fff"/>
      <path id="Path_66" data-name="Path 66" d="M456.047,53.867c-3.485,4.662-7.048,9.27-10.741,14.086l-7.785-10.289C429.74,47.382,421.96,37.1,414.059,26.659h0V45.691h0V72.605s0,0,0,0c-.022.019-.041.036-.063.053a2.1,2.1,0,0,1-1.927.2,19,19,0,0,1-12.311-8.586,17.7,17.7,0,0,1-2.437-8.939q-.2-18.89,0-37.783a17.375,17.375,0,0,1,2.758-9.386A19.451,19.451,0,0,1,411.82.155a2.137,2.137,0,0,1,2.239.394,4.093,4.093,0,0,1,.485.543c5.273,7,10.615,13.961,15.936,20.934.234.307.473.606.882,1.126L443,38.472c.7.944,1.459,1.9,2.27,2.968.485-.582.831-1,1.314-1.584,1.263,1.674,2.449,3.256,3.65,4.828,1.92,2.517,3.884,5,5.739,7.558a1.707,1.707,0,0,1,.077,1.63Z" transform="translate(-397.216 -0.019)" fill="#fff"/>
      <path id="Path_67" data-name="Path 67" d="M606.21,80.537A19.354,19.354,0,0,1,594.5,88.592a2.3,2.3,0,0,1-2.877-.932q-8.3-10.945-16.637-21.866-6.463-8.474-12.932-16.946c-.331-.43-.684-.843-1.145-1.411-.348.461-.691.906-1.029,1.345L549.73,35.421c3.734-4.852,7.439-9.669,11.236-14.6,3.746,4.891,7.425,9.693,11.154,14.564l12.91,17.1,4.29,5.681q.989,1.362,1.99,2.717a4.913,4.913,0,0,0,.466.536l14.432,19.117Z" transform="translate(-512.893 -15.795)" fill="#fff"/>
      <line id="Line_43" data-name="Line 43" x2="7.785" y2="10.289" transform="translate(40.306 57.646)" fill="#1bfef4"/>
      <path id="Path_68" data-name="Path 68" d="M702.643,114.9l-.075.1-6.316,8.367-.362.478" transform="translate(-623.75 -87.151)" fill="#fff"/>
      <path id="Path_69" data-name="Path 69" d="M740.964,81.888a17.585,17.585,0,0,1-2.712,9.388L723.82,72.159c.133.145.29.307.466.5V53.687l-.459.6L738.4,34.98a17.511,17.511,0,0,1,2.565,9.125q.192,18.89,0,37.783Z" transform="translate(-644.934 -26.535)" fill="#fff"/>
      <line id="Line_44" data-name="Line 44" x1="2.456" y1="3.253" transform="translate(76.429 42.371)" fill="#1bfef4"/>
    </g>
    <text id="Cloudy" transform="translate(-135.9 -294.653)" fill="#fff" font-size="69" font-family="Poppins-Bold, Poppins" font-weight="700"><tspan x="0" y="0">Cloudy</tspan></text>
  </g>
</svg>
