<?xml version="1.0" encoding="UTF-8"?>
<svg id="Layer_2" data-name="Layer 2" xmlns="http://www.w3.org/2000/svg" viewBox="0 0 1278.08 340.53">
  <defs>
    <style>
      .cls-1, .cls-2 {
        fill: #fff;
      }

      .cls-2 {
        font-family: Poppins-Bold, Poppins;
        font-size: 230.78px;
      }
    </style>
  </defs>
  <g id="Layer_1-2" data-name="Layer 1">
    <g>
      <text class="cls-2" transform="translate(429.06 200.68)"><tspan x="0" y="0">Cloudy</tspan></text>
      <g>
        <path class="cls-1" d="M325.36,29.41l-50.73,67.2-.26,.34c-7.84,10.17-14.95,19.28-21.77,28.56-.11,.15-.18,.34-.22,.56-.22,1.17,.5,3.16,1.28,4.27,4.06,5.77,8.21,11.48,12.39,17.17l-14.94-19.78-44.94-59.53c3.13,4.08,6.27,8.16,9.42,12.28,4.06-5.25,7.96-10.22,11.77-15.23,15.56-20.46,31.21-40.85,46.52-61.47,2.86-3.86,5.6-4.38,10.07-3.24,18.35,4.71,32.78,14.92,41.4,28.86Z"/>
        <path class="cls-1" d="M107.96,187.99c-16.13,21-32.17,42.06-48.01,63.25-.44,.58-.87,1.05-1.32,1.43v-93.69c5.62-7.32,10.48-13.65,15.71-20.46,1.12,1.24,2.03,2.1,2.77,3.08,10.23,13.34,20.37,26.74,30.72,40,1.84,2.36,2.03,3.92,.13,6.38Z"/>
        <path class="cls-1" d="M204.8,187.46c-12.13,16.23-24.53,32.27-37.39,49.03l-27.1-35.82c-27.09-35.79-54.17-71.57-81.68-107.93,0,0,0,0,0,0v66.25s0,0,0,0v93.69s0,.02-.02,.02c-.07,.07-.14,.13-.22,.19-1.95,1.51-4.05,1.32-6.71,.69-19.05-4.46-34.1-15.15-42.85-29.89C3.47,214.64,.46,204.1,.35,192.56c-.46-43.84-.48-87.69,.02-131.52,.14-12.28,3.53-23.35,9.6-32.67C18.67,14.94,32.88,5.11,50.83,.47c3.51-.91,5.73-.53,7.8,1.37,.57,.51,1.12,1.14,1.69,1.89,18.35,24.38,36.95,48.6,55.47,72.87,.82,1.07,1.65,2.11,3.07,3.92l40.51,53.33c2.45,3.29,5.08,6.63,7.9,10.33,1.69-2.03,2.89-3.48,4.58-5.52,4.4,5.83,8.52,11.33,12.7,16.81,6.68,8.76,13.52,17.41,19.98,26.31,1,1.38,1.21,4.41,.27,5.68Z"/>
        <path class="cls-1" d="M324.84,225.38c-8.62,13.48-22.78,23.32-40.77,28.04-4.63,1.22-7.19,.47-10.01-3.25-19.26-25.4-38.58-50.77-57.91-76.12-15-19.67-30.02-39.32-45.01-58.99-1.15-1.5-2.38-2.93-3.98-4.91-1.21,1.61-2.4,3.15-3.58,4.68l-35.33-46.51c13-16.89,25.9-33.66,39.11-50.82,13.04,17.03,25.84,33.74,38.82,50.7l44.94,59.53,14.94,19.78c2.3,3.16,4.61,6.31,6.93,9.46,.45,.62,.98,1.19,1.62,1.87l50.24,66.55Z"/>
        <line class="cls-1" x1="140.31" y1="200.68" x2="167.41" y2="236.5"/>
        <polyline class="cls-1" points="274.63 96.61 274.37 96.94 252.39 126.07 251.12 127.73"/>
        <path class="cls-1" d="M334.29,192.7c-.14,12.3-3.47,23.36-9.45,32.68l-50.24-66.55c.47,.5,1,1.07,1.62,1.75V94.53c-.54,.7-1.07,1.39-1.6,2.08l50.73-67.2c5.65,9.14,8.81,19.9,8.93,31.76,.45,43.84,.48,87.69,0,131.52Z"/>
        <line class="cls-1" x1="274.61" y1="158.83" x2="266.06" y2="147.51"/>
      </g>
    </g>
  </g>
</svg>