<svg xmlns="http://www.w3.org/2000/svg" width="48.122" height="34.637" viewBox="0 0 48.122 34.637">
  <g id="Logo" transform="translate(0.008 -0.002)">
    <g id="Group_91" data-name="Group 91" transform="translate(-0.008 0.002)">
      <path id="Path_78" data-name="Path 78" d="M183.84,8.351a7.986,7.986,0,0,0-1.284-4.332A9.63,9.63,0,0,0,176.6.085a1.2,1.2,0,0,0-1.449.441c-2.2,2.812-4.454,5.592-6.69,8.381-.147.183-.294.365-.444.548l5.12,6.34c.661-.825,1.35-1.666,2.083-2.568l.038-.045c.075-.094.152-.188.23-.283V21.9c-.09-.092-.167-.169-.233-.238a2.449,2.449,0,0,1-.234-.255q-.5-.644-1-1.289c-.6-.776-1.2-1.555-1.781-2.34a.968.968,0,0,1-.075-.122l-5.4-6.682,0,.006q-.678-.841-1.354-1.674C163.55,7,161.71,4.718,159.833,2.4c-1.9,2.342-3.754,4.627-5.623,6.929l5.079,6.342c.17-.208.341-.42.515-.639.231.269.408.465.573.67q3.236,4.022,6.472,8.043,4.171,5.184,8.33,10.377a1.183,1.183,0,0,0,1.439.442,9.7,9.7,0,0,0,5.864-3.822,8.04,8.04,0,0,0,1.359-4.456q.1-8.966,0-17.932Z" transform="translate(-135.767 -0.011)" fill="#fff"></path>
      <path id="Path_79" data-name="Path 79" d="M29.444,25.559c-1.745,2.212-3.528,4.4-5.377,6.685l-3.9-4.883c-3.9-4.879-7.791-9.757-11.746-14.716h0v9.033h0c.807-1,1.507-1.862,2.259-2.789.163.169.292.287.4.42,1.47,1.819,2.93,3.646,4.417,5.455a.571.571,0,0,1,.019.871q-3.478,4.295-6.9,8.624a1.233,1.233,0,0,1-.19.195,0,0,0,0,1,0,0l-.031.025a1.1,1.1,0,0,1-.965.094A9.513,9.513,0,0,1,1.263,30.5,8.1,8.1,0,0,1,.042,26.254q-.1-8.966,0-17.932A7.949,7.949,0,0,1,1.426,3.868,9.754,9.754,0,0,1,7.3.066,1.114,1.114,0,0,1,8.425.253a1.9,1.9,0,0,1,.243.258c2.639,3.325,5.312,6.625,7.978,9.934.117.146.237.288.441.535l5.825,7.271c.352.448.731.9,1.136,1.409l.658-.752c.633.794,1.226,1.545,1.827,2.291.962,1.195,1.945,2.374,2.873,3.587a.772.772,0,0,1,.038.774Z" transform="translate(0.008 -0.002)" fill="#fff"></path>
      <line id="Line_47" data-name="Line 47" x2="3.897" y2="4.883" transform="translate(20.177 27.36)" fill="#1bfef4"></line>
      <line id="Line_48" data-name="Line 48" x1="1.229" y1="1.545" transform="translate(38.261 20.11)" fill="#1bfef4"></line>
    </g>
  </g>
</svg>
